<svg xmlns="http://www.w3.org/2000/svg" viewBox="0 0 356.637 70.039" preserveAspectRatio="xMinYMin meet">
  <title>CodePen</title>
	<path d="M22.412,16.802c4.004,0,7.674,1.445,10.521,3.841l3.875-4.619c-3.896-3.276-8.921-5.254-14.396-5.254
		C10.054,10.77,0,20.824,0,33.182c0,12.359,10.055,22.414,22.412,22.414c5.479,0,10.5-1.98,14.396-5.254l-3.875-4.619
		c-2.849,2.393-6.521,3.838-10.521,3.838c-9.031,0-16.381-7.348-16.381-16.376C6.031,24.151,13.381,16.802,22.412,16.802"/>
	<path d="M146.483,12.063h-12.066c-1.666,0-3.018,1.351-3.018,3.017v36.208c0,1.664,1.352,3.016,3.018,3.016h12.066
		c11.647,0,21.121-9.475,21.121-21.12C167.604,21.539,158.131,12.063,146.483,12.063 M146.483,48.27h-9.051V18.096h9.051
		c8.319,0,15.086,6.769,15.086,15.086C161.568,41.502,154.802,48.27,146.483,48.27"/>
	<path d="M183.942,15.08v36.208c0,1.664,1.352,3.016,3.018,3.016h25.145V48.27h-22.127v-12.07h14.082v-6.032h-14.082v-12.07h22.127
		v-6.033h-25.145C185.291,12.063,183.942,13.414,183.942,15.08"/>
	<path d="M275.27,15.08v36.208c0,1.664,1.352,3.016,3.018,3.016h25.146V48.27h-22.125v-12.07h14.08v-6.032h-14.08v-12.07h22.125
		v-6.033h-25.146C276.623,12.063,275.27,13.414,275.27,15.08"/>
	<path d="M246.557,12.063h-13.074c-1.666,0-3.018,1.351-3.018,3.017v39.223h6.035V36.199h10.057c6.654,0,12.068-5.415,12.068-12.069
		C258.625,17.475,253.211,12.063,246.557,12.063 M246.557,30.166H236.5V18.097h10.059c3.326,0,6.033,2.707,6.033,6.033
		C252.592,27.458,249.885,30.166,246.557,30.166"/>
	<path d="M350.604,12.063v30.89L325.77,13.147c-0.814-0.978-2.152-1.338-3.348-0.903c-1.193,0.432-1.99,1.565-1.99,2.836v39.223
		h6.037V23.414l24.836,29.805c0.584,0.699,1.438,1.084,2.316,1.084c0.346,0,0.689-0.059,1.025-0.18
		c1.195-0.434,1.99-1.566,1.99-2.836V12.063H350.604L350.604,12.063z"/>
	<path d="M114.258,22.895c-0.016-0.078-0.026-0.155-0.049-0.229c-0.014-0.047-0.029-0.09-0.043-0.136
		c-0.021-0.067-0.045-0.135-0.072-0.202c-0.02-0.043-0.039-0.091-0.061-0.134c-0.029-0.063-0.062-0.125-0.094-0.185
		c-0.027-0.043-0.054-0.086-0.08-0.129c-0.039-0.057-0.076-0.112-0.117-0.168c-0.029-0.039-0.061-0.08-0.096-0.116
		c-0.043-0.054-0.09-0.103-0.138-0.152c-0.036-0.036-0.071-0.071-0.108-0.106c-0.051-0.045-0.104-0.09-0.158-0.131
		c-0.041-0.033-0.08-0.064-0.125-0.095c-0.016-0.012-0.029-0.024-0.045-0.034L83.654,1.464c-0.928-0.619-2.139-0.619-3.066,0
		L51.172,21.078c-0.02,0.008-0.03,0.022-0.047,0.034c-0.045,0.029-0.084,0.062-0.125,0.095c-0.055,0.041-0.104,0.086-0.156,0.131
		c-0.036,0.035-0.073,0.07-0.108,0.106c-0.051,0.05-0.096,0.101-0.142,0.152c-0.03,0.038-0.062,0.077-0.094,0.116
		c-0.041,0.056-0.08,0.111-0.117,0.168c-0.026,0.043-0.055,0.086-0.077,0.129c-0.035,0.062-0.064,0.121-0.095,0.185
		c-0.021,0.043-0.045,0.091-0.062,0.134c-0.027,0.067-0.051,0.135-0.072,0.202c-0.014,0.046-0.029,0.089-0.043,0.136
		c-0.02,0.074-0.033,0.151-0.049,0.229c-0.006,0.041-0.017,0.08-0.021,0.119c-0.016,0.12-0.022,0.239-0.022,0.36v19.612
		c0,0.121,0.01,0.24,0.022,0.359c0.009,0.041,0.017,0.08,0.021,0.121c0.014,0.076,0.029,0.152,0.049,0.23
		c0.014,0.047,0.029,0.09,0.043,0.135c0.021,0.066,0.045,0.137,0.072,0.203c0.018,0.043,0.039,0.088,0.062,0.131
		c0.027,0.064,0.06,0.125,0.095,0.186c0.022,0.045,0.051,0.086,0.077,0.129c0.037,0.059,0.076,0.113,0.117,0.168
		c0.029,0.041,0.062,0.08,0.094,0.119c0.046,0.053,0.091,0.104,0.142,0.148c0.035,0.037,0.072,0.074,0.108,0.107
		c0.052,0.047,0.103,0.09,0.156,0.133c0.041,0.033,0.08,0.064,0.125,0.094c0.017,0.014,0.027,0.025,0.047,0.035l29.416,19.611
		c0.465,0.309,1,0.467,1.533,0.467c0.535,0,1.07-0.158,1.533-0.467l29.418-19.611c0.018-0.01,0.031-0.021,0.045-0.035
		c0.045-0.027,0.084-0.061,0.127-0.094c0.055-0.043,0.105-0.086,0.156-0.133c0.037-0.033,0.074-0.07,0.108-0.107
		c0.05-0.047,0.095-0.098,0.14-0.148c0.033-0.039,0.063-0.078,0.094-0.119c0.041-0.055,0.08-0.109,0.117-0.168
		c0.026-0.043,0.053-0.084,0.08-0.129c0.033-0.061,0.063-0.121,0.094-0.184c0.021-0.045,0.041-0.09,0.062-0.133
		c0.027-0.066,0.052-0.137,0.07-0.203c0.017-0.045,0.029-0.088,0.043-0.135c0.021-0.078,0.033-0.154,0.051-0.23
		c0.007-0.041,0.017-0.08,0.021-0.121c0.018-0.119,0.024-0.238,0.024-0.359V23.375c0-0.119-0.01-0.24-0.024-0.36
		C114.274,22.975,114.264,22.936,114.258,22.895 M82.123,39.725l-9.783-6.542l9.783-6.543l9.781,6.543L82.123,39.725z
		 M79.354,21.833l-11.99,8.021l-9.68-6.477l21.67-14.447V21.833L79.354,21.833z M62.389,33.182l-6.921,4.628v-9.257L62.389,33.182z
		 M67.363,36.51l11.99,8.021v12.9l-21.67-14.447L67.363,36.51z M84.886,44.531l11.99-8.021l9.683,6.475L84.886,57.432V44.531
		L84.886,44.531z M101.852,33.182l6.922-4.627v9.257L101.852,33.182z M96.877,29.856l-11.99-8.021v-12.9l21.673,14.447
		L96.877,29.856z"/>
</svg>