<?xml version="1.0" encoding="utf-8"?>
<!DOCTYPE svg PUBLIC "-//W3C//DTD SVG 1.1//EN" "http://www.w3.org/Graphics/SVG/1.1/DTD/svg11.dtd">
<svg version="1.1" xmlns="http://www.w3.org/2000/svg" width="60px" height="60px" viewBox="0 0 60 60">
<g fill="#454C54">
	<path d="M30,0C13.431,0,0,13.431,0,30c0,16.568,13.431,30,30,30c16.568,0,30-13.432,30-30C60,13.431,46.568,0,30,0
		 M30,55.073C16.174,55.073,4.927,43.825,4.927,30S16.174,4.927,30,4.927c13.825,0,25.072,11.248,25.072,25.073
		S43.825,55.073,30,55.073"/>
	<path d="M48.535,24.141c-0.003-0.023-0.01-0.046-0.014-0.069c-0.008-0.045-0.017-0.09-0.027-0.134
		c-0.008-0.026-0.018-0.052-0.023-0.077c-0.014-0.039-0.025-0.078-0.041-0.116c-0.013-0.026-0.023-0.053-0.037-0.078
		c-0.017-0.036-0.033-0.071-0.054-0.105c-0.015-0.025-0.03-0.05-0.046-0.074c-0.021-0.033-0.043-0.065-0.066-0.097
		c-0.019-0.023-0.037-0.047-0.056-0.069c-0.024-0.029-0.052-0.059-0.079-0.086c-0.021-0.021-0.042-0.042-0.062-0.062
		c-0.029-0.026-0.061-0.053-0.09-0.076c-0.024-0.019-0.049-0.037-0.072-0.055c-0.01-0.006-0.018-0.014-0.026-0.02L30.884,11.719
		c-0.535-0.357-1.233-0.357-1.769,0L12.16,23.022c-0.009,0.006-0.017,0.014-0.026,0.02c-0.025,0.018-0.048,0.036-0.072,0.055
		c-0.031,0.023-0.062,0.05-0.09,0.076c-0.022,0.02-0.043,0.041-0.064,0.062c-0.028,0.027-0.054,0.057-0.079,0.086
		c-0.019,0.022-0.038,0.046-0.055,0.069c-0.023,0.031-0.046,0.063-0.067,0.097c-0.016,0.024-0.031,0.049-0.045,0.074
		c-0.02,0.034-0.037,0.069-0.054,0.105c-0.012,0.025-0.025,0.052-0.036,0.078c-0.016,0.038-0.028,0.077-0.041,0.116
		c-0.008,0.025-0.018,0.051-0.025,0.077c-0.012,0.044-0.02,0.089-0.028,0.134c-0.004,0.023-0.01,0.046-0.013,0.069
		c-0.009,0.068-0.015,0.138-0.015,0.208V35.65c0,0.07,0.005,0.141,0.015,0.209c0.003,0.022,0.009,0.047,0.013,0.068
		c0.008,0.045,0.016,0.09,0.028,0.135c0.007,0.025,0.017,0.052,0.025,0.076c0.013,0.039,0.025,0.078,0.041,0.117
		c0.011,0.026,0.023,0.053,0.036,0.077c0.017,0.036,0.035,0.069,0.054,0.106c0.015,0.023,0.029,0.047,0.045,0.071
		c0.021,0.034,0.044,0.066,0.067,0.097c0.018,0.024,0.036,0.048,0.055,0.069c0.025,0.029,0.051,0.06,0.079,0.087
		c0.021,0.021,0.042,0.043,0.064,0.062c0.029,0.026,0.059,0.052,0.09,0.075c0.023,0.02,0.047,0.037,0.072,0.056
		c0.009,0.006,0.018,0.014,0.026,0.021L29.115,48.28c0.268,0.18,0.576,0.27,0.885,0.27c0.308,0,0.616-0.09,0.884-0.269L47.84,36.979
		c0.01-0.006,0.018-0.015,0.026-0.021c0.024-0.019,0.048-0.036,0.071-0.056c0.03-0.023,0.062-0.049,0.09-0.075
		c0.021-0.021,0.043-0.041,0.063-0.062c0.027-0.027,0.054-0.058,0.079-0.086c0.02-0.022,0.037-0.046,0.055-0.07
		c0.024-0.029,0.047-0.062,0.067-0.096c0.017-0.024,0.031-0.049,0.046-0.072c0.02-0.036,0.037-0.07,0.055-0.106
		c0.012-0.024,0.023-0.051,0.035-0.077c0.016-0.039,0.028-0.078,0.041-0.117c0.008-0.024,0.018-0.051,0.024-0.076
		c0.012-0.045,0.021-0.09,0.028-0.135c0.004-0.021,0.01-0.046,0.013-0.068c0.009-0.068,0.015-0.139,0.015-0.209V24.349
		C48.55,24.278,48.544,24.209,48.535,24.141 M31.594,16.023l12.49,8.326l-5.578,3.733l-6.912-4.624V16.023z M28.406,16.023v7.436
		l-6.911,4.624l-5.58-3.733L28.406,16.023z M14.639,27.332L18.627,30l-3.988,2.668V27.332z M28.406,43.977L15.915,35.65l5.58-3.731
		l6.911,4.622V43.977z M30,33.771L24.361,30L30,26.229L35.639,30L30,33.771z M31.594,43.977V36.54l6.912-4.622l5.578,3.73
		L31.594,43.977z M45.361,32.668L41.373,30l3.988-2.668V32.668z"/>
</g>
</svg>
