<?xml version="1.0" encoding="utf-8"?>
<!DOCTYPE svg PUBLIC "-//W3C//DTD SVG 1.1//EN" "http://www.w3.org/Graphics/SVG/1.1/DTD/svg11.dtd">
<svg version="1.1" xmlns="http://www.w3.org/2000/svg" width="60px" height="60px" viewBox="0 0 60 60">
<path fill="#454C54" d="M30,60C13.458,60,0,46.542,0,30S13.458,0,30,0s30,13.458,30,30S46.542,60,30,60z M55.301,34.105
	c-0.877-0.276-7.932-2.381-15.962-1.096c3.353,9.21,4.716,16.711,4.979,18.271C50.064,47.395,54.158,41.236,55.301,34.105z
	 M40.01,53.627c-0.382-2.248-1.869-10.083-5.467-19.434c-0.057,0.021-0.111,0.039-0.169,0.059
	C19.92,39.288,14.732,49.312,14.271,50.254c4.345,3.389,9.805,5.409,15.729,5.409C33.55,55.663,36.934,54.938,40.01,53.627z
	 M10.962,47.172c0.581-0.992,7.613-12.638,20.829-16.909c0.334-0.108,0.671-0.209,1.01-0.305c-0.643-1.456-1.344-2.913-2.076-4.349
	c-12.796,3.829-25.215,3.67-26.335,3.646c-0.008,0.26-0.013,0.521-0.013,0.783C4.375,36.62,6.87,42.629,10.962,47.172z
	 M4.917,24.791c1.146,0.015,11.703,0.061,23.689-3.122c-4.246-7.548-8.825-13.894-9.5-14.82C11.937,10.23,6.578,16.839,4.917,24.791
	z M23.995,5.127c0.708,0.948,5.362,7.286,9.562,15.001c9.111-3.416,12.969-8.601,13.43-9.257C42.461,6.856,36.512,4.414,30,4.414
	C27.932,4.414,25.922,4.662,23.995,5.127z M49.835,13.834c-0.54,0.731-4.834,6.235-14.31,10.104
	c0.598,1.221,1.168,2.463,1.701,3.712c0.188,0.443,0.371,0.884,0.551,1.322c8.527-1.072,16.998,0.646,17.844,0.825
	C55.564,23.749,53.404,18.194,49.835,13.834z"/>
</svg>
