<?xml version="1.0" encoding="utf-8"?>
<!DOCTYPE svg PUBLIC "-//W3C//DTD SVG 1.1//EN" "http://www.w3.org/Graphics/SVG/1.1/DTD/svg11.dtd">
<svg version="1.1" xmlns="http://www.w3.org/2000/svg" width="50px" height="31px" viewBox="0 0 50 31">
<g fill="#454C54">
	<path d="M45.478,1.654C46.863,0.745,46.641,0,44.982,0H4.948c-1.658,0-1.88,0.745-0.495,1.654l17.992,11.812c1.386,0.91,3.654,0.91,5.04,0L45.478,1.654z"/>
	<path d="M27.544,17.592c-1.418,0.858-3.738,0.857-5.155-0.003L2.576,5.555C1.159,4.695,0,5.347,0,7.005v20.981C0,29.644,1.356,31,3.014,31h43.972C48.644,31,50,29.644,50,27.986V7.005c0-1.658-1.16-2.312-2.578-1.453L27.544,17.592z"/>
</g>
</svg>
