<?xml version="1.0" encoding="utf-8"?>
<!DOCTYPE svg PUBLIC "-//W3C//DTD SVG 1.1//EN" "http://www.w3.org/Graphics/SVG/1.1/DTD/svg11.dtd">
<svg version="1.1" xmlns="http://www.w3.org/2000/svg" width="60px" height="60px" viewBox="0 0 60 60">
<g fill="#454C54">
  <path d="M30,0.742c-16.566,0-30,13.431-30,30
    c0,13.254,8.596,24.5,20.516,28.467c1.5,0.277,2.05-0.651,2.05-1.443c0-0.716-0.028-3.079-0.042-5.586
    c-8.346,1.814-10.107-3.539-10.107-3.539c-1.364-3.468-3.331-4.391-3.331-4.391c-2.721-1.861,0.206-1.823,0.206-1.823
    c3.013,0.212,4.599,3.092,4.599,3.092c2.676,4.587,7.018,3.261,8.73,2.493c0.27-1.938,1.046-3.262,1.905-4.012
    c-6.664-0.758-13.669-3.331-13.669-14.826c0-3.275,1.172-5.951,3.091-8.053c-0.312-0.756-1.338-3.807,0.291-7.938
    c0,0,2.52-0.807,8.252,3.075c2.393-0.665,4.959-0.999,7.509-1.01c2.549,0.011,5.118,0.346,7.516,1.01
    c5.726-3.882,8.241-3.075,8.241-3.075c1.634,4.132,0.605,7.183,0.294,7.938c1.924,2.102,3.088,4.777,3.088,8.053
    c0,11.522-7.018,14.059-13.698,14.801c1.075,0.932,2.034,2.757,2.034,5.556c0,4.015-0.034,7.245-0.034,8.233
    c0,0.798,0.54,1.733,2.061,1.438C51.414,55.23,60,43.99,60,30.74C60,14.172,46.568,0.742,30,0.742"/>
  <path d="M11.362,43.813c-0.066,0.15-0.3,0.194-0.514,0.092
    c-0.218-0.098-0.339-0.301-0.27-0.451c0.064-0.152,0.3-0.195,0.517-0.093C11.314,43.459,11.438,43.665,11.362,43.813L11.362,43.813"
    />
  <path d="M12.578,45.169c-0.144,0.133-0.423,0.071-0.613-0.139
    c-0.196-0.209-0.233-0.488-0.088-0.623c0.147-0.133,0.419-0.07,0.616,0.139C12.689,44.757,12.727,45.034,12.578,45.169
    L12.578,45.169"/>
  <path d="M13.761,46.897c-0.184,0.127-0.484,0.008-0.67-0.259
    c-0.184-0.267-0.184-0.587,0.004-0.716c0.186-0.128,0.482-0.012,0.67,0.252C13.948,46.446,13.948,46.767,13.761,46.897
    L13.761,46.897"/>
  <path d="M15.381,48.566c-0.165,0.181-0.515,0.132-0.771-0.115
    c-0.263-0.241-0.335-0.585-0.171-0.767c0.167-0.182,0.519-0.131,0.777,0.115C15.477,48.041,15.556,48.387,15.381,48.566
    L15.381,48.566"/>
  <path d="M17.617,49.535c-0.072,0.235-0.41,0.343-0.75,0.242
    c-0.34-0.103-0.562-0.378-0.493-0.615c0.071-0.237,0.41-0.348,0.752-0.241C17.464,49.023,17.687,49.297,17.617,49.535L17.617,49.535
    "/>
  <path d="M20.072,49.716c0.008,0.247-0.28,0.452-0.637,0.457
    c-0.358,0.008-0.649-0.193-0.653-0.436c0-0.25,0.282-0.453,0.641-0.459C19.78,49.271,20.072,49.47,20.072,49.716L20.072,49.716"/>
  <path d="M22.356,49.326c0.043,0.241-0.205,0.489-0.559,0.556
    c-0.349,0.063-0.67-0.086-0.715-0.325c-0.043-0.247,0.208-0.495,0.556-0.56C21.994,48.936,22.311,49.081,22.356,49.326
    L22.356,49.326"/>
</g>
</svg>
