<?xml version="1.0" encoding="utf-8"?>
<!DOCTYPE svg PUBLIC "-//W3C//DTD SVG 1.1//EN" "http://www.w3.org/Graphics/SVG/1.1/DTD/svg11.dtd">
<svg version="1.1" xmlns="http://www.w3.org/2000/svg" width="60px" height="60px" viewBox="0 0 60 60">
<path fill-rule="evenodd" clip-rule="evenodd" fill="#454C54" d="M51.104,25.767h-4.785c0.346,1.354,0.552,2.768,0.552,4.232
	c0,9.347-7.576,16.924-16.922,16.924c-9.346,0-16.923-7.577-16.923-16.924c0-1.464,0.207-2.878,0.553-4.232H8.794v23.271
	c0,1.167,0.948,2.112,2.117,2.112h38.075c1.169,0,2.118-0.945,2.118-2.112V25.767z M51.104,10.96c0-1.171-0.948-2.115-2.118-2.115
	h-6.345c-1.167,0-2.115,0.944-2.115,2.115v6.348c0,1.167,0.948,2.115,2.115,2.115h6.345c1.169,0,2.118-0.948,2.118-2.115V10.96z
	 M29.949,19.423c-5.843,0-10.577,4.738-10.577,10.576c0,5.84,4.734,10.578,10.577,10.578s10.577-4.737,10.577-10.578
	C40.526,24.161,35.792,19.423,29.949,19.423 M51.104,57.5H8.794c-3.504,0-6.345-2.842-6.345-6.35V8.846
	C2.449,5.34,5.29,2.5,8.794,2.5h42.31c3.504,0,6.345,2.84,6.345,6.346V51.15C57.449,54.658,54.609,57.5,51.104,57.5"/>
</svg>
