<?xml version="1.0" encoding="utf-8"?>
<!DOCTYPE svg PUBLIC "-//W3C//DTD SVG 1.1//EN" "http://www.w3.org/Graphics/SVG/1.1/DTD/svg11.dtd">
<svg version="1.1" xmlns="http://www.w3.org/2000/svg" width="60px" height="60px" viewBox="0 0 60 60">
<g fill="#C83D3D">
	<path d="M30,0C13.434,0,0,13.434,0,30c0,16.565,13.434,30,30,30s30-13.435,30-30C60,13.434,46.566,0,30,0z M43,26
		c1,0.5,1.5,2.5-1.5,4c-1,0.5-1.5,0.5-2-0.5C38.5,27.5,41,25,43,26z M36,17c1.5-1,3.5-0.5,3.5,1.5c0,0.5-1,1.5-2,2s-2,1.5-3.5,0
		C33,19.5,34.5,18,36,17z M40.5,47.5c-2.5,0-4-1-5.5-4s-1-10-3-10c-1.5,0-2.5,0.5-2.5,3c0,3.5,4.5,6,4.5,8.5c0,2-1.5,2.5-3.5,2.5
		c-4,0-6-8.5-7-8.5c-0.5,0-1,0.5-2,2s2,2.5,2,3.5c0,1.5-1,2-5,2C15,46.5,11,44,12,41c1.5-4.5,0-5-1-11c1.5,0.5,2,2,2,2s0-1,1.5-2.5
		c3,9,8,8,8,8c-3-14.5,5-23,9.5-23c-1.5,14,2,20.5,9,20.5c0,2-0.5,2.5-0.5,5s2.5,3.5,2.5,5.5C43,47,42,47.5,40.5,47.5z M43,34.5
		c-2.5,0-3.5-1-3.5-2.5c1.5,1.5,2.5,1.5,4,1.5C43.5,33.5,43.5,34.5,43,34.5z M46,31.5c-0.5,1-1,1-1.5,1s-1,0-1.5-1s1-1,1.5-1
		S46.5,30.5,46,31.5z M46.5,30C46,30,45,29,45,27.5s2-1.5,2.5-1C48.5,27.5,47,30,46.5,30z M48.5,21c0-1-0.5-2.5-2-3
		c0.5-1,2.5-1.5,3.5-0.5S50.5,20,48.5,21z"/>
	<circle cx="41.5" cy="28" r="0.5"/>
	<circle cx="46.5" cy="28" r="0.5"/>
</g>
</svg>
