<?xml version="1.0" encoding="utf-8"?>
<!DOCTYPE svg PUBLIC "-//W3C//DTD SVG 1.1//EN" "http://www.w3.org/Graphics/SVG/1.1/DTD/svg11.dtd">
<svg version="1.1" xmlns="http://www.w3.org/2000/svg" width="60px" height="60px" viewBox="0 0 60 60">
<path fill="#454C54" d="M18.869,54.381c-6.952,0-13.422-2.039-18.87-5.531
	c0.963,0.113,1.943,0.172,2.937,0.172c5.767,0,11.075-1.969,15.288-5.27c-5.386-0.1-9.933-3.658-11.499-8.549
	c0.752,0.145,1.523,0.221,2.316,0.221c1.123,0,2.21-0.15,3.243-0.432c-5.631-1.131-9.875-6.105-9.875-12.07
	c0-0.052,0-0.104,0.001-0.154c1.66,0.922,3.558,1.478,5.576,1.539C4.684,22.1,2.51,18.333,2.51,14.061
	c0-2.256,0.607-4.369,1.667-6.188c6.072,7.446,15.142,12.348,25.373,12.86c-0.21-0.899-0.319-1.84-0.319-2.805
	c0-6.799,5.512-12.311,12.31-12.311c3.541,0,6.739,1.495,8.985,3.889c2.804-0.553,5.438-1.578,7.817-2.988
	c-0.92,2.875-2.871,5.287-5.414,6.812c2.49-0.298,4.863-0.959,7.07-1.938c-1.65,2.467-3.738,4.635-6.143,6.371
	c0.023,0.527,0.036,1.059,0.036,1.592C53.894,35.625,41.512,54.381,18.869,54.381"/>
</svg>
