<svg xmlns="http://www.w3.org/2000/svg" viewBox="0 0 20 20" enable-background="new 0 0 20 20"><path d="M15.066 12.141c-3.531 0-5.416-3.568-4.474-10.466-2.118 0-6.356 4.281-4.708 11.655 0 0-2.825 0-4.003-4.044-.706.476-.706 1.189-.706 1.189s-.235-.952-1.176-.952c.706 1.903 1.412 3.33.706 5.472-.471 1.427 1.412 2.855 3.295 2.855s2.354-.238 2.354-.951c0-.477-1.413-1.189-.941-1.903.471-.714.706-.952.941-.952.471 0 1.412 4.282 3.531 4.282 1.177 0 1.884-.238 1.884-1.189 0-1.189-2.355-2.616-2.355-4.282 0-1.189.471-1.664 1.413-1.664.942 0 .707 3.806 1.413 5.232.707 1.428 1.178 1.903 2.59 1.903.706 0 1.412-.238 1.412-.952 0-.951-1.412-1.427-1.412-2.854l.236-2.379zm1.177-.239c.236 0 .236-.476.236-.476-.707 0-1.413-.237-2.119-.951 0 .714.706 1.427 1.883 1.427zm-.706-3.568c.13 0 .235.107.235.238s-.105.238-.235.238-.235-.107-.235-.238.105-.238.235-.238zm-1.177.952c.235.476.706.476 1.177.237 1.413-.713 1.177-1.664.706-1.902-.941-.475-2.353.713-1.883 1.665m-.941-4.519c.471-.237.941-.951.941-1.189 0-.951-.941-1.188-1.648-.713-.706.476-1.648 1.189-.941 1.902.47.475 1.177.238 1.648 0m4.473 4.044c-.131 0-.235-.106-.235-.238 0-.131.104-.238.235-.238s.235.107.235.238-.105.238-.235.238m-.707-.477c0 .715.472 1.189.707 1.189s1.178-.713.706-1.664c-.236-.476-1.413-.476-1.413.475m-.235 1.428c-.236 0-.941 0-.707.477.236.475.471.475.707.475.234 0 .471 0 .706-.475.236-.477-.471-.477-.706-.477m2.824-6.66c-.471-.476-1.647-.237-1.883.238.706.237.941 1.189.941 1.665 1.179-.476 1.413-1.428.942-1.903"/></svg>