<svg xmlns="http://www.w3.org/2000/svg" viewBox="0 0 32 32" preserveAspectRatio="xMinYMin meet">
  <title>CodePen</title>
	<path d="M16.0004883,0C7.1635742,0,0,7.1630859,0,16c0,8.8359375,7.1635742,16,16.0004883,16C24.8364258,32,32,24.8359375,32,16
		C32,7.1630859,24.8364258,0,16.0004883,0 M16.0004883,29.3710938C8.6259766,29.3710938,2.6279297,23.3720703,2.6279297,16
		c0-7.3730469,5.9980469-13.3720703,13.3725586-13.3720703c7.3735352,0,13.371582,5.9990234,13.371582,13.3720703
		C29.3720703,23.3720703,23.3740234,29.3710938,16.0004883,29.3710938"></path>
	<path d="M25.8852539,12.8740234c-0.0014648-0.0117188-0.0048828-0.0224609-0.0068359-0.0361328
		c-0.0039062-0.0244141-0.0083008-0.046875-0.0146484-0.0712891c-0.003418-0.0136719-0.0092773-0.0263672-0.0136719-0.0410156
		c-0.0063477-0.0205078-0.0131836-0.0410156-0.0214844-0.0615234c-0.0058594-0.0146484-0.0126953-0.0273438-0.019043-0.0419922
		c-0.0087891-0.0195312-0.0180664-0.0371094-0.0292969-0.0556641c-0.0073242-0.0136719-0.015625-0.0263672-0.0234375-0.0400391
		c-0.0117188-0.0175781-0.0239258-0.0351562-0.0361328-0.0517578c-0.0092773-0.0117188-0.019043-0.0244141-0.0292969-0.0361328
		c-0.0136719-0.0166016-0.0273438-0.0322266-0.0419922-0.046875c-0.0112305-0.0107422-0.0229492-0.0224609-0.0341797-0.0322266
		c-0.015625-0.0146484-0.0317383-0.0283203-0.0478516-0.0410156c-0.0131836-0.0097656-0.0253906-0.0195312-0.0385742-0.0283203
		c-0.0048828-0.0039062-0.0097656-0.0078125-0.0146484-0.0117188L16.4711914,6.25
		c-0.2851562-0.1904297-0.6572266-0.1904297-0.9423828,0l-9.043457,6.0283203
		c-0.0043945,0.0039062-0.0092773,0.0078125-0.0136719,0.0117188c-0.0136719,0.0087891-0.0258789,0.0185547-0.0380859,0.0283203
		c-0.0170898,0.0126953-0.0332031,0.0263672-0.0488281,0.0410156c-0.0112305,0.0097656-0.0229492,0.0214844-0.0336914,0.0322266
		C6.3359375,12.40625,6.3222656,12.421875,6.309082,12.4384766c-0.0102539,0.0117188-0.0205078,0.0244141-0.0297852,0.0361328
		c-0.012207,0.0166016-0.0244141,0.0341797-0.0351562,0.0517578c-0.0087891,0.0136719-0.0170898,0.0263672-0.0244141,0.0400391
		c-0.0112305,0.0185547-0.0205078,0.0361328-0.0292969,0.0556641c-0.0063477,0.0146484-0.0131836,0.0273438-0.0185547,0.0419922
		c-0.0087891,0.0205078-0.015625,0.0410156-0.0219727,0.0615234c-0.0043945,0.0146484-0.0092773,0.0273438-0.0136719,0.0410156
		c-0.0063477,0.0244141-0.0102539,0.046875-0.0146484,0.0712891c-0.0019531,0.0136719-0.0053711,0.0244141-0.0063477,0.0361328
		c-0.0058594,0.0380859-0.0083008,0.0742188-0.0083008,0.1113281v6.0283203c0,0.0371094,0.0024414,0.0742188,0.0083008,0.1113281
		c0.0009766,0.0117188,0.0043945,0.0244141,0.0063477,0.0361328c0.0043945,0.0244141,0.0083008,0.0478516,0.0146484,0.0712891
		c0.0043945,0.0146484,0.0092773,0.0273438,0.0136719,0.0410156c0.0063477,0.0214844,0.0131836,0.0419922,0.0219727,0.0625
		c0.0053711,0.0146484,0.012207,0.0273438,0.0185547,0.0410156c0.0087891,0.0195312,0.0180664,0.0380859,0.0292969,0.0576172
		c0.0073242,0.0126953,0.015625,0.0263672,0.0244141,0.0380859c0.0107422,0.0175781,0.0229492,0.0351562,0.0351562,0.0517578
		c0.0092773,0.0136719,0.0195312,0.0253906,0.0297852,0.0371094c0.0131836,0.015625,0.0268555,0.03125,0.0419922,0.046875
		c0.0107422,0.0107422,0.0224609,0.0214844,0.0336914,0.03125c0.015625,0.015625,0.0317383,0.0292969,0.0488281,0.0410156
		c0.012207,0.0097656,0.0244141,0.0205078,0.0380859,0.0292969c0.0043945,0.0039062,0.0092773,0.0078125,0.0136719,0.0107422
		L15.5288086,25.75c0.1425781,0.09375,0.3071289,0.1425781,0.4716797,0.1425781c0.1635742,0,0.328125-0.0488281,0.4707031-0.1425781
		l9.0429688-6.0292969c0.0048828-0.0029297,0.0097656-0.0068359,0.0146484-0.0107422
		c0.0131836-0.0087891,0.0253906-0.0195312,0.0385742-0.0292969c0.0161133-0.0117188,0.0322266-0.0253906,0.0478516-0.0410156
		c0.0112305-0.0097656,0.0229492-0.0205078,0.0341797-0.03125c0.0146484-0.015625,0.0283203-0.03125,0.0419922-0.046875
		c0.0102539-0.0117188,0.0200195-0.0234375,0.0292969-0.0371094c0.012207-0.0166016,0.0244141-0.0341797,0.0361328-0.0517578
		c0.0078125-0.0117188,0.0161133-0.0253906,0.0234375-0.0380859c0.0112305-0.0195312,0.0205078-0.0380859,0.0292969-0.0576172
		c0.0063477-0.0136719,0.0131836-0.0263672,0.019043-0.0410156c0.0083008-0.0205078,0.0151367-0.0410156,0.0214844-0.0625
		c0.0043945-0.0136719,0.0102539-0.0263672,0.0136719-0.0410156c0.0063477-0.0234375,0.0107422-0.046875,0.0146484-0.0712891
		c0.0019531-0.0117188,0.0053711-0.0244141,0.0068359-0.0361328c0.0053711-0.0371094,0.0078125-0.0742188,0.0078125-0.1113281
		v-6.0283203C25.8930664,12.9482422,25.890625,12.9121094,25.8852539,12.8740234 M16.8500977,8.5458984l6.6616211,4.4414062
		l-2.9755859,1.9902344l-3.6860352-2.4658203V8.5458984z M15.1499023,8.5458984v3.9658203l-3.6860352,2.4658203L8.487793,12.9873047
		L15.1499023,8.5458984z M7.8071289,14.5771484L9.9345703,16l-2.1274414,1.421875V14.5771484z M15.1499023,23.453125
		L8.487793,19.0126953l2.9760742-1.9902344l3.6860352,2.4648438V23.453125z M16.0004883,18.0097656L12.9926758,16
		l3.0078125-2.0107422L19.0073242,16L16.0004883,18.0097656z M16.8500977,23.453125v-3.9658203l3.6860352-2.4648438
		l2.9755859,1.9902344L16.8500977,23.453125z M24.1928711,17.421875L22.0654297,16l2.1274414-1.4228516V17.421875z"></path>
</svg>