<?xml version="1.0" encoding="utf-8"?>
<!-- Generator: Adobe Illustrator 15.1.0, SVG Export Plug-In . SVG Version: 6.00 Build 0)  -->
<!DOCTYPE svg PUBLIC "-//W3C//DTD SVG 1.1//EN" "http://www.w3.org/Graphics/SVG/1.1/DTD/svg11.dtd">
<svg version="1.1" id="codepen" xmlns="http://www.w3.org/2000/svg" xmlns:xlink="http://www.w3.org/1999/xlink"
  viewBox="0 0 20 20" enable-background="new 0 0 20 20" xml:space="preserve">
	<path d="M10,0C4.477,0,0,4.477,0,10c0,5.522,4.477,10,10,10s10-4.478,10-10C20,4.477,15.523,0,10,0 M10,18.357
		c-4.609,0-8.357-3.75-8.357-8.357c0-4.608,3.748-8.357,8.357-8.357S18.357,5.392,18.357,10C18.357,14.607,14.609,18.357,10,18.357"
		/>
	<path d="M16.178,8.047c0-0.008-0.002-0.015-0.004-0.023c-0.002-0.015-0.005-0.029-0.009-0.044
		c-0.003-0.009-0.006-0.017-0.009-0.025c-0.004-0.014-0.008-0.026-0.014-0.039c-0.004-0.009-0.008-0.017-0.012-0.026
		c-0.006-0.012-0.012-0.022-0.018-0.034c-0.006-0.009-0.01-0.017-0.016-0.025c-0.007-0.011-0.015-0.021-0.022-0.032
		c-0.005-0.008-0.012-0.016-0.019-0.022c-0.008-0.011-0.017-0.021-0.025-0.029c-0.008-0.007-0.015-0.015-0.021-0.021
		c-0.01-0.009-0.02-0.018-0.03-0.025c-0.009-0.006-0.016-0.013-0.024-0.018c-0.002-0.003-0.006-0.005-0.009-0.008l-5.651-3.768
		c-0.179-0.119-0.411-0.119-0.59,0L4.053,7.674C4.051,7.677,4.047,7.679,4.045,7.682C4.036,7.687,4.029,7.693,4.021,7.699
		C4.01,7.707,4,7.716,3.99,7.725C3.983,7.73,3.977,7.738,3.969,7.745C3.96,7.754,3.951,7.764,3.943,7.774
		C3.937,7.781,3.93,7.789,3.925,7.797C3.917,7.808,3.909,7.818,3.902,7.829c-0.006,0.009-0.01,0.017-0.016,0.025
		C3.881,7.866,3.875,7.877,3.869,7.889c-0.004,0.01-0.008,0.018-0.012,0.026C3.852,7.928,3.848,7.94,3.844,7.954
		C3.841,7.963,3.838,7.971,3.835,7.979C3.831,7.994,3.828,8.009,3.826,8.023C3.824,8.032,3.822,8.039,3.822,8.047
		C3.818,8.07,3.816,8.093,3.816,8.116v3.768c0,0.022,0.002,0.046,0.006,0.069c0,0.008,0.002,0.016,0.004,0.022
		c0.002,0.016,0.005,0.03,0.009,0.045c0.003,0.009,0.006,0.017,0.009,0.025c0.004,0.014,0.008,0.026,0.014,0.039
		c0.004,0.009,0.008,0.017,0.012,0.025c0.006,0.013,0.012,0.024,0.018,0.036c0.006,0.008,0.01,0.017,0.016,0.023
		c0.007,0.012,0.015,0.022,0.022,0.033c0.005,0.008,0.012,0.016,0.019,0.023c0.008,0.01,0.017,0.02,0.025,0.029
		c0.008,0.006,0.015,0.013,0.021,0.02c0.01,0.01,0.02,0.018,0.031,0.025c0.008,0.006,0.015,0.013,0.023,0.018
		c0.002,0.003,0.006,0.006,0.008,0.007l5.652,3.769c0.09,0.059,0.192,0.089,0.295,0.089s0.205-0.03,0.295-0.089l5.651-3.769
		c0.003-0.001,0.007-0.004,0.009-0.007c0.009-0.005,0.016-0.012,0.024-0.018c0.011-0.008,0.021-0.016,0.03-0.025
		c0.007-0.007,0.014-0.014,0.021-0.02c0.009-0.01,0.018-0.02,0.025-0.029c0.007-0.008,0.014-0.016,0.019-0.023
		c0.008-0.011,0.016-0.021,0.022-0.033c0.006-0.007,0.01-0.016,0.016-0.023c0.006-0.012,0.012-0.023,0.018-0.036
		c0.004-0.009,0.008-0.017,0.012-0.025c0.006-0.013,0.01-0.025,0.014-0.039c0.003-0.009,0.006-0.017,0.009-0.025
		c0.004-0.015,0.007-0.029,0.009-0.045c0.002-0.007,0.004-0.015,0.004-0.022c0.004-0.023,0.006-0.047,0.006-0.069V8.116
		C16.184,8.093,16.182,8.07,16.178,8.047 M10.531,5.342l4.164,2.775l-1.86,1.244L10.531,7.82V5.342z M9.469,5.342V7.82L7.165,9.361
		l-1.86-1.244L9.469,5.342z M4.879,9.111L6.209,10l-1.33,0.889V9.111z M9.469,14.658l-4.164-2.775l1.86-1.244l2.304,1.541V14.658z
		 M10,11.256L8.121,10L10,8.743L11.879,10L10,11.256z M10.531,14.658V12.18l2.304-1.541l1.86,1.244L10.531,14.658z M15.121,10.889
		L13.791,10l1.33-0.889V10.889z"/>
</svg>
