<?xml version="1.0" encoding="utf-8"?>
<!-- Generator: Adobe Illustrator 15.1.0, SVG Export Plug-In . SVG Version: 6.00 Build 0)  -->
<!DOCTYPE svg PUBLIC "-//W3C//DTD SVG 1.1//EN" "http://www.w3.org/Graphics/SVG/1.1/DTD/svg11.dtd">
<svg version="1.1" id="demo" xmlns="http://www.w3.org/2000/svg" xmlns:xlink="http://www.w3.org/1999/xlink" x="0px" y="0px"
	 width="20px" height="20px" viewBox="0 0 20 20" enable-background="new 0 0 20 20" xml:space="preserve">
<path d="M18,3H2C0.9,3,0,3.9,0,5v12c0,1.1,0.9,2,2,2h16c1.1,0,2-0.9,2-2V5C20,3.9,19.1,3,18,3z M4.5,4.75
	c0.414,0,0.75,0.336,0.75,0.75S4.914,6.25,4.5,6.25S3.75,5.914,3.75,5.5S4.086,4.75,4.5,4.75z M1.75,5.5
	c0-0.414,0.336-0.75,0.75-0.75S3.25,5.086,3.25,5.5S2.914,6.25,2.5,6.25S1.75,5.914,1.75,5.5z M18,17H2V8h16V17z M18,6H6V5h12.02
	L18,6z"/>
</svg>
