<svg xmlns="http://www.w3.org/2000/svg" viewBox="0 0 32 32" preserveAspectRatio="xMinYMin meet">
  <title>RSS Feed</title>
  <path d="M24,29 C24,17.5124772 15.045695,8.2 4,8.2 L4,3 C17.8071187,3 29,14.6405965 29,29 L24,29 Z M7.42857143,29 C9.32211914,29 10.8571429,27.4035753 10.8571429,25.4342857 C10.8571429,23.4649961 9.32211914,21.8685714 7.42857143,21.8685714 C5.53502371,21.8685714 4,23.4649961 4,25.4342857 C4,27.4035753 5.53502371,29 7.42857143,29 Z M20.5714286,29 L15.7142857,29 C15.7142857,22.2715938 10.4696214,16.8171429 4,16.8171429 L4,11.7657143 C13.1521473,11.7657143 20.5714286,19.4817668 20.5714286,29 Z"></path>
</svg>