<svg xmlns="http://www.w3.org/2000/svg" viewBox="0 0 32 32" preserveAspectRatio="xMinYMin meet">
  <title>GitHub</title>
  <path d="M15.9703802,0 C7.15133884,0 0,7.33179661 0,16.3764068 C0,23.6119322 4.576,29.7505085 10.9215207,31.9159322 C11.7196694,32.0675254 12.0126942,31.560678 12.0126942,31.1281356 C12.0126942,30.7376271 11.9978843,29.4475932 11.9910083,28.0791864 C7.54803306,29.0698305 6.6105124,26.1469831 6.6105124,26.1469831 C5.88403306,24.2541017 4.83728926,23.7507797 4.83728926,23.7507797 C3.38829752,22.7343729 4.9465124,22.7552542 4.9465124,22.7552542 C6.55021488,22.8707797 7.39464463,24.4428475 7.39464463,24.4428475 C8.81904132,26.9464407 11.1307107,26.2226441 12.0420496,25.8042034 C12.1853884,24.7457627 12.5992727,24.023322 13.056,23.6143729 C9.50876033,23.2002712 5.77983471,21.7960678 5.77983471,15.5210847 C5.77983471,13.7331525 6.40370248,12.2722712 7.42532231,11.1254237 C7.25950413,10.7129492 6.7128595,9.04732203 7.58003306,6.79159322 C7.58003306,6.79159322 8.92112397,6.35145763 11.9730248,8.47023729 C13.2469421,8.10738983 14.613157,7.92542373 15.9703802,7.91918644 C17.3276033,7.92542373 18.694876,8.10738983 19.9711736,8.47023729 C23.0193719,6.35145763 24.3586116,6.79159322 24.3586116,6.79159322 C25.2279008,9.04732203 24.6809917,10.7129492 24.5151736,11.1254237 C25.5391736,12.2722712 26.1588099,13.7331525 26.1588099,15.5210847 C26.1588099,21.8109831 22.4227438,23.1959322 18.8665124,23.6013559 C19.4393388,24.1095593 19.9497521,25.1061695 19.9497521,26.6340339 C19.9497521,28.8252203 19.9312397,30.5887458 19.9312397,31.1281356 C19.9312397,31.5639322 20.2187107,32.0745763 21.0282314,31.9137627 C27.370314,29.7458983 31.9404959,23.6094915 31.9404959,16.3764068 C31.9404959,7.33179661 24.7902149,0 15.9703802,0 Z M6.04879339,23.5129492 C6.01361983,23.5943051 5.88879339,23.6187119 5.77507438,23.5628475 C5.65923967,23.5094237 5.59418182,23.3985085 5.63173554,23.3168814 C5.6661157,23.2330847 5.79120661,23.2097627 5.90677686,23.2658983 C6.02287603,23.319322 6.08899174,23.431322 6.04879339,23.5129492 Z M6.69566942,24.2527458 C6.61950413,24.3251525 6.47061157,24.2915254 6.36958678,24.1770847 C6.26512397,24.0629153 6.24555372,23.9102373 6.32277686,23.8367458 C6.40132231,23.764339 6.54571901,23.7982373 6.65044628,23.9124068 C6.75490909,24.0279322 6.77527273,24.1795254 6.69566942,24.2527458 Z M7.32535537,25.1959322 C7.22750413,25.2656271 7.06750413,25.2002712 6.96859504,25.0546441 C6.8707438,24.9090169 6.8707438,24.7343729 6.97071074,24.6644068 C7.0698843,24.5944407 7.22750413,24.6573559 7.32773554,24.8018983 C7.42532231,24.9499661 7.42532231,25.1246102 7.32535537,25.1959322 Z M8.18803306,26.1071186 C8.10049587,26.2061017 7.91404959,26.1795254 7.77758678,26.0444746 C7.63795041,25.9124068 7.59907438,25.7250169 7.68687603,25.6260339 C7.77547107,25.5267797 7.96297521,25.5547119 8.10049587,25.688678 C8.23907438,25.8204746 8.28138843,26.0092203 8.18803306,26.1071186 Z M9.3781157,26.6362034 C9.33950413,26.7644746 9.15993388,26.8227797 8.97904132,26.7682712 C8.79841322,26.7121356 8.68019835,26.5618983 8.71669421,26.4322712 C8.75424793,26.3031864 8.93461157,26.2424407 9.11682645,26.3007458 C9.29719008,26.3566102 9.41566942,26.5057627 9.3781157,26.6362034 Z M10.6850909,26.7343729 C10.6895868,26.8694237 10.5361983,26.9814237 10.346314,26.9838644 C10.1553719,26.9882034 10.0009256,26.8789153 9.99880992,26.7460339 C9.99880992,26.6096271 10.1487603,26.4987119 10.3397025,26.4954576 C10.5295868,26.491661 10.6850909,26.6001356 10.6850909,26.7343729 Z M11.9013554,26.5220339 C11.9240992,26.6538305 11.7921322,26.7891525 11.6035702,26.8252203 C11.4181818,26.8599322 11.2465455,26.7785763 11.2230083,26.6478644 C11.2,26.5128136 11.3343471,26.3774915 11.5194711,26.3425085 C11.7082975,26.3088814 11.8772893,26.3880678 11.9013554,26.5220339 Z"></path>
</svg>