<?xml version="1.0" encoding="utf-8"?>
<!-- Generator: Adobe Illustrator 15.1.0, SVG Export Plug-In . SVG Version: 6.00 Build 0)  -->
<!DOCTYPE svg PUBLIC "-//W3C//DTD SVG 1.1//EN" "http://www.w3.org/Graphics/SVG/1.1/DTD/svg11.dtd">
<svg version="1.1" id="github" xmlns="http://www.w3.org/2000/svg" xmlns:xlink="http://www.w3.org/1999/xlink"
	 viewBox="0 0 20 20" enable-background="new 0 0 20 20" xml:space="preserve">
<path d="M10,0C4.478,0,0,4.591,0,10.254c0,4.531,2.865,8.375,6.839,9.73c0.5,0.095,0.683-0.223,0.683-0.493
	c0-0.245-0.009-1.053-0.014-1.909c-2.782,0.619-3.369-1.21-3.369-1.21c-0.455-1.186-1.11-1.501-1.11-1.501
	c-0.908-0.636,0.068-0.622,0.068-0.622c1.004,0.072,1.533,1.057,1.533,1.057c0.892,1.567,2.339,1.113,2.91,0.851
	c0.089-0.66,0.349-1.113,0.635-1.37c-2.221-0.259-4.556-1.138-4.556-5.067c0-1.12,0.391-2.035,1.03-2.752
	C4.545,6.708,4.203,5.666,4.746,4.252c0,0,0.84-0.275,2.751,1.051C8.295,5.076,9.15,4.963,10,4.959
	c0.85,0.004,1.705,0.117,2.506,0.345c1.908-1.327,2.747-1.051,2.747-1.051c0.544,1.413,0.202,2.456,0.098,2.714
	c0.642,0.718,1.029,1.633,1.029,2.752c0,3.938-2.341,4.807-4.567,5.06c0.359,0.317,0.68,0.942,0.68,1.899
	c0,1.371-0.012,2.477-0.012,2.813c0,0.272,0.18,0.593,0.687,0.492c3.972-1.356,6.833-5.2,6.833-9.729C20,4.591,15.523,0,10,0z
	 M3.787,14.723c-0.022,0.051-0.1,0.066-0.171,0.031c-0.073-0.033-0.113-0.103-0.09-0.154c0.021-0.053,0.1-0.066,0.172-0.031
	C3.771,14.602,3.812,14.672,3.787,14.723z M4.192,15.187c-0.047,0.045-0.141,0.023-0.204-0.047
	c-0.065-0.073-0.078-0.169-0.029-0.214c0.049-0.045,0.14-0.023,0.206,0.047C4.229,15.045,4.242,15.141,4.192,15.187z M4.586,15.777
	c-0.061,0.043-0.161,0.002-0.223-0.089s-0.062-0.2,0.001-0.245c0.062-0.043,0.161-0.004,0.224,0.086
	C4.649,15.623,4.649,15.732,4.586,15.777z M5.127,16.347c-0.055,0.062-0.171,0.046-0.257-0.039c-0.087-0.082-0.112-0.2-0.057-0.263
	c0.056-0.061,0.173-0.043,0.259,0.041C5.159,16.168,5.186,16.286,5.127,16.347z M5.872,16.678c-0.024,0.081-0.136,0.117-0.25,0.084
	c-0.113-0.035-0.187-0.129-0.164-0.211c0.023-0.08,0.136-0.119,0.251-0.082C5.821,16.504,5.896,16.598,5.872,16.678z M6.69,16.74
	c0.003,0.084-0.093,0.154-0.212,0.156c-0.12,0.002-0.216-0.066-0.218-0.148c0-0.086,0.094-0.156,0.214-0.158
	C6.593,16.588,6.69,16.656,6.69,16.74z M7.452,16.607c0.014,0.082-0.068,0.167-0.186,0.189c-0.117,0.021-0.224-0.029-0.239-0.111
	c-0.014-0.084,0.07-0.168,0.186-0.191C7.332,16.475,7.437,16.523,7.452,16.607z"/>
</svg>
