<?xml version="1.0" encoding="utf-8"?>
<!-- Generator: Adobe Illustrator 15.1.0, SVG Export Plug-In . SVG Version: 6.00 Build 0)  -->
<!DOCTYPE svg PUBLIC "-//W3C//DTD SVG 1.1//EN" "http://www.w3.org/Graphics/SVG/1.1/DTD/svg11.dtd">
<svg version="1.1" id="instagram" xmlns="http://www.w3.org/2000/svg" xmlns:xlink="http://www.w3.org/1999/xlink"
	 viewBox="0 0 20 20" enable-background="new 0 0 20 20" xml:space="preserve">
<path d="M16.924,19H3.076C1.93,19,1,18.07,1,16.922V3.077C1,1.93,1.93,1,3.076,1h13.848C18.07,1,19,1.93,19,3.077v13.845
	C19,18.07,18.07,19,16.924,19L16.924,19z M10,6.539c-1.912,0-3.462,1.549-3.462,3.461c0,1.91,1.55,3.461,3.462,3.461
	S13.463,11.91,13.463,10C13.463,8.088,11.912,6.539,10,6.539L10,6.539z M16.924,3.77c0-0.382-0.311-0.693-0.693-0.693h-2.076
	c-0.383,0-0.691,0.311-0.691,0.693v2.077c0,0.382,0.309,0.692,0.691,0.692h2.076c0.383,0,0.693-0.311,0.693-0.692V3.77z
	 M16.924,8.615h-1.567c0.114,0.444,0.182,0.906,0.182,1.385c0,3.059-2.479,5.539-5.538,5.539c-3.059,0-5.538-2.48-5.538-5.539
	c0-0.479,0.067-0.941,0.182-1.385H3.076v7.616c0,0.383,0.311,0.691,0.693,0.691H16.23c0.383,0,0.693-0.309,0.693-0.691V8.615z"/>
</svg>
