<svg xmlns="http://www.w3.org/2000/svg" viewBox="0 0 32 32" preserveAspectRatio="xMinYMin meet">
  <title>Instagram</title>
  <path d="M27.5845133,31.0509735 L4.46672566,31.0509735 C2.55230088,31.0509735 1,29.4981416 1,27.5823894 L1,4.46672566 C1,2.5520354 2.55230088,1 4.46672566,1 L27.5845133,1 C29.4992035,1 31.0512389,2.5520354 31.0512389,4.46672566 L31.0512389,27.5823894 C31.0512389,29.4981416 29.4992035,31.0509735 27.5845133,31.0509735 L27.5845133,31.0509735 Z M16.0254867,10.2461062 C12.8335398,10.2461062 10.2463717,12.8330088 10.2463717,16.0249558 C10.2463717,19.2163717 12.8335398,21.8046018 16.0254867,21.8046018 C19.2174336,21.8046018 21.8051327,19.2163717 21.8051327,16.0249558 C21.8051327,12.8330088 19.2174336,10.2461062 16.0254867,10.2461062 L16.0254867,10.2461062 Z M27.5845133,5.62238938 C27.5845133,4.98442478 27.0668142,4.46672566 26.4275221,4.46672566 L22.9607965,4.46672566 C22.3223009,4.46672566 21.8051327,4.98442478 21.8051327,5.62238938 L21.8051327,9.09044248 C21.8051327,9.72840708 22.3223009,10.2461062 22.9607965,10.2461062 L26.4275221,10.2461062 C27.0668142,10.2461062 27.5845133,9.72840708 27.5845133,9.09044248 L27.5845133,5.62238938 Z M27.5845133,13.7125664 L24.9684071,13.7125664 C25.1590265,14.4524779 25.2715929,15.2255752 25.2715929,16.0249558 C25.2715929,21.1323894 21.1321239,25.2715929 16.0254867,25.2715929 C10.919115,25.2715929 6.77938053,21.1323894 6.77938053,16.0249558 C6.77938053,15.2255752 6.89247788,14.4524779 7.08309735,13.7125664 L4.46672566,13.7125664 L4.46672566,26.4275221 C4.46672566,27.0649558 4.98442478,27.5823894 5.62371681,27.5823894 L26.4275221,27.5823894 C27.0668142,27.5823894 27.5845133,27.0649558 27.5845133,26.4275221 L27.5845133,13.7125664 Z"></path>
</svg>