<?xml version="1.0" encoding="utf-8"?>
<!-- Generator: Adobe Illustrator 15.1.0, SVG Export Plug-In . SVG Version: 6.00 Build 0)  -->
<!DOCTYPE svg PUBLIC "-//W3C//DTD SVG 1.1//EN" "http://www.w3.org/Graphics/SVG/1.1/DTD/svg11.dtd">
<svg version="1.1" id="link" xmlns="http://www.w3.org/2000/svg" xmlns:xlink="http://www.w3.org/1999/xlink"
	 viewBox="0 0 20 20" enable-background="new 0 0 20 20" xml:space="preserve">
<path d="M7.859,14.693l-0.81,0.805c-0.701,0.695-1.843,0.695-2.545,0c-0.336-0.334-0.521-0.779-0.521-1.252s0.186-0.916,0.521-1.252
	l2.98-2.955c0.617-0.613,1.779-1.516,2.626-0.676c0.389,0.387,1.016,0.385,1.404-0.004c0.385-0.39,0.383-1.018-0.007-1.402
	c-1.438-1.428-3.566-1.164-5.419,0.675l-2.98,2.956C2.393,12.297,2,13.242,2,14.246c0,1.006,0.394,1.949,1.108,2.658
	C3.844,17.634,4.81,18,5.777,18c0.967,0,1.934-0.365,2.669-1.096L9.257,16.1c0.389-0.386,0.391-1.013,0.005-1.4
	C8.875,14.311,8.248,14.309,7.859,14.693z M16.891,3.209c-1.547-1.534-3.709-1.617-5.139-0.197l-1.009,1.002
	c-0.389,0.387-0.392,1.014-0.007,1.401c0.387,0.389,1.014,0.392,1.402,0.005l1.01-1.001c0.74-0.735,1.711-0.431,2.347,0.197
	c0.336,0.335,0.522,0.778,0.522,1.252c0,0.473-0.187,0.917-0.522,1.251l-3.181,3.154c-1.453,1.44-2.135,0.766-2.426,0.477
	c-0.389-0.387-1.016-0.383-1.401,0.005c-0.386,0.39-0.384,1.017,0.005,1.401c0.668,0.662,1.43,0.99,2.229,0.99
	c0.977,0,2.01-0.492,2.992-1.468l3.18-3.153C17.605,7.816,18,6.872,18,5.868C18,4.863,17.605,3.919,16.891,3.209z"/>
</svg>
