<svg xmlns="http://www.w3.org/2000/svg" viewBox="0 0 60 60" preserveAspectRatio="xMinYMin meet">
  <title>Pandy</title>
  <path d="M45.2021563,36.3980882 C34.607903,36.3980882 28.9576334,25.694183 31.7827763,5 C25.426221,5 12.7131105,17.8446732 17.6570943,39.9660458 C17.6570943,39.9660458 9.18169811,39.9660458 5.65026954,27.8349673 C3.5314124,29.2621569 3.5314124,31.4029412 3.5314124,31.4029412 C3.5314124,31.4029412 2.82514286,28.5485621 3.55271368e-15,28.5485621 C2.11885714,34.2573039 4.23769811,38.5388562 2.11885714,44.9611928 C0.706285714,49.2427451 6.35655526,53.5243137 12.0068248,53.5243137 C17.6570943,53.5243137 19.0696658,52.810719 19.0696658,50.6699346 C19.0696658,49.2427451 14.8319515,47.1019771 16.2445229,44.9611928 C17.6570943,42.8204248 18.3633801,42.1068301 19.0696658,42.1068301 C20.4822372,42.1068301 23.3073639,54.9514869 29.6639191,54.9514869 C33.1953315,54.9514869 35.3141887,54.2379085 35.3141887,51.3835294 C35.3141887,47.8155719 28.2513477,43.5340033 28.2513477,38.5388562 C28.2513477,34.9708987 29.6639191,33.5437092 32.4890458,33.5437092 C35.3141887,33.5437092 34.607903,44.9611928 36.7267601,49.2427451 C38.8456011,53.5243137 40.2581725,54.9514869 44.4958706,54.9514869 C46.6147278,54.9514869 48.7335687,54.2379085 48.7335687,52.0971242 C48.7335687,49.2427451 44.4958706,47.8155719 44.4958706,43.5340033 C44.4958706,40.6796405 45.2021563,39.252451 45.2021563,36.3980882 Z M48.7335687,35.6844935 C49.4398544,35.6844935 49.4398544,34.2573039 49.4398544,34.2573039 C47.3210135,34.2573039 45.2021563,33.5437092 43.0833154,31.4029412 C43.0833154,33.5437092 45.2021563,35.6844935 48.7335687,35.6844935 Z M46.6147278,24.9806046 C47.0051321,24.9806046 47.3210135,25.2997549 47.3210135,25.694183 C47.3210135,26.0879085 47.0051321,26.4077778 46.6147278,26.4077778 C46.225035,26.4077778 45.908442,26.0879085 45.908442,25.694183 C45.908442,25.2997549 46.225035,24.9806046 46.6147278,24.9806046 Z M43.0833154,27.8349673 C43.7895849,29.2621569 45.2021563,29.2621569 46.6147278,28.5485621 C50.8524259,26.4077778 50.1461402,23.553415 48.7335687,22.8398203 C45.908442,21.4126307 41.6707439,24.9806046 43.0833154,27.8349673 M40.2581725,14.2766993 C41.6707439,13.5631209 43.0833154,11.4223366 43.0833154,10.7087418 C43.0833154,7.85437908 40.2581725,7.14078431 38.1393154,8.56797386 C36.0204744,9.99514706 33.1953315,12.1359314 35.3141887,14.2766993 C36.7267601,15.7038889 38.8456011,14.9902941 40.2581725,14.2766993 M53.6775687,26.4077778 C53.2868086,26.4077778 52.971283,26.088268 52.971283,25.694183 C52.971283,25.3001144 53.2868086,24.9806046 53.6775687,24.9806046 C54.0683127,24.9806046 54.3838544,25.3001144 54.3838544,25.694183 C54.3838544,26.088268 54.0683127,26.4077778 53.6775687,26.4077778 M51.5587116,24.9806046 C51.5587116,27.1213725 52.971283,28.5485621 53.6775687,28.5485621 C54.3838544,28.5485621 57.2089811,26.4077778 55.7964097,23.553415 C55.090124,22.1262255 51.5587116,22.1262255 51.5587116,24.9806046 M50.8524259,29.2621569 C50.1461402,29.2621569 48.0272992,29.2621569 48.7335687,30.6893464 C49.4398544,32.1165196 50.1461402,32.1165196 50.8524259,32.1165196 C51.5587116,32.1165196 52.2649973,32.1165196 52.971283,30.6893464 C53.6775687,29.2621569 51.5587116,29.2621569 50.8524259,29.2621569 M59.3278383,9.28155229 C57.9152668,7.85437908 54.3838544,8.56797386 53.6775687,9.99514706 C55.7964097,10.7087418 56.5026954,13.5631209 56.5026954,14.9902941 C60.0341078,13.5631209 60.7403935,10.7087418 59.3278383,9.28155229"></path>
</svg>