<?xml version="1.0" encoding="utf-8"?>
<!-- Generator: Adobe Illustrator 15.1.0, SVG Export Plug-In . SVG Version: 6.00 Build 0)  -->
<!DOCTYPE svg PUBLIC "-//W3C//DTD SVG 1.1//EN" "http://www.w3.org/Graphics/SVG/1.1/DTD/svg11.dtd">
<svg version="1.1" id="pandy" xmlns="http://www.w3.org/2000/svg" xmlns:xlink="http://www.w3.org/1999/xlink"
  viewBox="0 0 20 20" enable-background="new 0 0 20 20" xml:space="preserve">
  <path d="M15.066,12.141c-3.531,0-5.416-3.568-4.474-10.466c-2.118,0-6.356,4.281-4.708,11.655c0,0-2.825,0-4.003-4.044
    c-0.706,0.476-0.706,1.189-0.706,1.189S0.94,9.523-0.001,9.523c0.706,1.903,1.412,3.33,0.706,5.472
    C0.234,16.422,2.117,17.85,4,17.85s2.354-0.238,2.354-0.951c0-0.477-1.413-1.189-0.941-1.903c0.471-0.714,0.706-0.952,0.941-0.952
    c0.471,0,1.412,4.282,3.531,4.282c1.177,0,1.884-0.238,1.884-1.189c0-1.189-2.355-2.616-2.355-4.282
    c0-1.189,0.471-1.664,1.413-1.664c0.942,0,0.707,3.806,1.413,5.232c0.707,1.428,1.178,1.903,2.59,1.903
    c0.706,0,1.412-0.238,1.412-0.952c0-0.951-1.412-1.427-1.412-2.854C14.831,13.568,15.066,13.092,15.066,12.141z M16.243,11.902
    c0.236,0,0.236-0.476,0.236-0.476c-0.707,0-1.413-0.237-2.119-0.951C14.36,11.189,15.066,11.902,16.243,11.902z M15.537,8.334
    c0.13,0,0.235,0.107,0.235,0.238s-0.105,0.238-0.235,0.238s-0.235-0.107-0.235-0.238S15.407,8.334,15.537,8.334z M14.36,9.286
    c0.235,0.476,0.706,0.476,1.177,0.237c1.413-0.713,1.177-1.664,0.706-1.902C15.302,7.146,13.89,8.334,14.36,9.286 M13.419,4.767
    c0.471-0.237,0.941-0.951,0.941-1.189c0-0.951-0.941-1.188-1.648-0.713c-0.706,0.476-1.648,1.189-0.941,1.902
    C12.241,5.242,12.948,5.005,13.419,4.767 M17.892,8.811c-0.131,0-0.235-0.106-0.235-0.238c0-0.131,0.104-0.238,0.235-0.238
    s0.235,0.107,0.235,0.238C18.127,8.704,18.022,8.811,17.892,8.811 M17.185,8.334c0,0.715,0.472,1.189,0.707,1.189
    s1.178-0.713,0.706-1.664C18.362,7.383,17.185,7.383,17.185,8.334 M16.95,9.762c-0.236,0-0.941,0-0.707,0.477
    c0.236,0.475,0.471,0.475,0.707,0.475c0.234,0,0.471,0,0.706-0.475C17.892,9.762,17.185,9.762,16.95,9.762 M19.774,3.102
    c-0.471-0.476-1.647-0.237-1.883,0.238c0.706,0.237,0.941,1.189,0.941,1.665C20.011,4.529,20.245,3.577,19.774,3.102"/>
</svg>
