<svg xmlns="http://www.w3.org/2000/svg" viewBox="0 0 32 32" preserveAspectRatio="xMinYMin meet">
  <title>Twitter</title>
  <path d="M10.0638648,30 C6.35634076,30 2.90538791,28.871648 0,26.9377121 C0.513610593,27.0006616 1.03623395,27.0328655 1.56611434,27.0328655 C4.64192545,27.0328655 7.47275321,25.9431582 9.71962398,24.1150699 C6.84677567,24.0600194 4.42222466,22.0893833 3.58684663,19.3813384 C3.98762208,19.4609367 4.39893193,19.5035917 4.82194667,19.5035917 C5.42076886,19.5035917 6.00074619,19.4203476 6.55169538,19.2645536 C3.54822049,18.6384611 1.28531402,15.8835078 1.28531402,12.5809666 C1.28531402,12.5522869 1.28531402,12.5237287 1.28578222,12.4952921 C2.17102308,13.0058152 3.18326201,13.3124207 4.25952668,13.3477842 C2.49794067,12.125494 1.33880537,10.0391668 1.33880537,7.67442771 C1.33880537,6.42528063 1.66256264,5.25439512 2.22767475,4.24768879 C5.46571564,8.37149043 10.3032298,11.0851254 15.7595816,11.3693705 C15.6476828,10.8705137 15.5895095,10.3502687 15.5895095,9.81604839 C15.5895095,6.05183682 18.5290757,3 22.1548996,3 C24.0431325,3 25.7493544,3.82782274 26.9469988,5.15255786 C28.4424156,4.84680301 29.8474706,4.27952813 31.1159296,3.4984922 C30.6257288,5.09009443 29.5848129,6.42588825 28.2292695,7.26950913 C29.5573064,7.10472234 30.8226051,6.73832693 32,6.19620755 C31.1197922,7.56311156 30.0066572,8.76364897 28.7240353,9.72466221 C28.7366765,10.0169279 28.7429972,10.3108949 28.7429972,10.6064417 C28.7429972,19.6136926 22.1395662,30 10.0638648,30"></path>
</svg>