<svg xmlns="http://www.w3.org/2000/svg">
  <symbol id="github" viewBox="0 0 32 32" preserveAspectRatio="xMinYMin meet">
    <title>Github</title>
    <path d="M15.97 0C7.15 0 0 7.332 0 16.376c0 7.236 4.576 13.375 10.922 15.54.798.152 1.09-.355 1.09-.788 0-.39-.014-1.68-.02-3.05-4.444.992-5.38-1.93-5.38-1.93-.728-1.894-1.775-2.397-1.775-2.397-1.45-1.016.11-.995.11-.995 1.603.116 2.448 1.688 2.448 1.688 1.424 2.503 3.736 1.78 4.647 1.36.143-1.057.557-1.78 1.014-2.19C9.51 23.2 5.78 21.797 5.78 15.522c0-1.787.624-3.248 1.645-4.395-.165-.412-.712-2.078.155-4.333 0 0 1.34-.44 4.393 1.678 1.274-.363 2.64-.545 3.997-.55 1.358.005 2.725.187 4 .55 3.05-2.12 4.39-1.678 4.39-1.678.868 2.255.32 3.92.155 4.333 1.024 1.147 1.644 2.608 1.644 4.396 0 6.29-3.737 7.676-7.293 8.08.572.51 1.083 1.506 1.083 3.034 0 2.19-.02 3.955-.02 4.494 0 .436.29.947 1.098.786C27.37 29.746 31.94 23.61 31.94 16.376 31.94 7.332 24.79 0 15.97 0zM6.05 23.513c-.036.08-.16.106-.275.05-.116-.054-.18-.164-.143-.246.034-.084.16-.107.275-.05.116.052.182.164.142.246zm.646.74c-.076.072-.225.04-.326-.076-.105-.114-.124-.267-.047-.34.078-.073.223-.04.327.075.105.116.125.268.046.34zm.63.943c-.098.07-.258.004-.357-.14-.1-.147-.1-.322 0-.392s.258-.007.358.138c.097.148.097.323-.003.394zm.862.91c-.088.1-.274.074-.41-.062-.14-.132-.18-.32-.09-.418.087-.1.275-.07.412.063.14.13.18.32.088.417zm1.19.53c-.038.128-.218.187-.4.132-.18-.056-.298-.206-.26-.336.036-.13.217-.19.4-.13.18.055.298.204.26.334zm1.307.098c.005.135-.15.247-.34.25-.19.004-.344-.105-.346-.238 0-.136.15-.247.34-.25.19-.004.345.104.345.238zm1.216-.212c.024.132-.108.267-.296.303-.186.035-.357-.046-.38-.177-.024-.135.11-.27.295-.305.188-.034.357.045.38.18z"/>
  </symbol>

  <symbol id="twitter" viewBox="0 0 32 32" preserveAspectRatio="xMinYMin meet">
    <title>Twitter</title>
    <path d="M10.064 30C6.356 30 2.904 28.872 0 26.938c.514.063 1.036.095 1.566.095 3.076 0 5.907-1.09 8.154-2.918-2.873-.055-5.298-2.026-6.133-4.734.4.08.812.124 1.235.124.6 0 1.18-.084 1.73-.24-3.004-.626-5.267-3.38-5.267-6.683v-.085c.886.51 1.898.817 2.975.853-1.762-1.223-2.92-3.31-2.92-5.674 0-1.25.323-2.42.888-3.426 3.238 4.123 8.075 6.837 13.532 7.12-.112-.497-.17-1.018-.17-1.552C15.59 6.052 18.53 3 22.155 3c1.888 0 3.594.828 4.792 2.153 1.495-.306 2.9-.873 4.17-1.655-.49 1.592-1.532 2.928-2.888 3.772 1.327-.165 2.593-.532 3.77-1.074-.88 1.367-1.993 2.568-3.276 3.53.013.29.02.585.02.88C28.743 19.614 22.14 30 10.063 30"/>
  </symbol>

  <symbol id="instagram" viewBox="0 0 32 32" preserveAspectRatio="xMinYMin meet">
    <title>Instagram</title>
    <path d="M28.357 32.054H3.697c-2.04 0-3.697-1.656-3.697-3.7V3.7C0 1.656 1.656 0 3.698 0h24.66c2.04 0 3.697 1.656 3.697 3.698v24.657c0 2.043-1.656 3.7-3.698 3.7zm-12.33-22.19c-3.405 0-6.164 2.758-6.164 6.163 0 3.404 2.76 6.165 6.164 6.165 3.405 0 6.165-2.76 6.165-6.165 0-3.405-2.76-6.164-6.165-6.164zm12.33-4.933c0-.68-.552-1.232-1.234-1.232h-3.698c-.68 0-1.233.552-1.233 1.233v3.7c0 .68.552 1.233 1.233 1.233h3.698c.682 0 1.234-.553 1.234-1.233v-3.7zm0 8.63h-2.79c.203.79.323 1.614.323 2.467 0 5.448-4.416 9.863-9.863 9.863-5.447 0-9.862-4.415-9.862-9.863 0-.853.12-1.678.324-2.467H3.697v13.563c0 .68.552 1.232 1.234 1.232h22.19c.683 0 1.235-.552 1.235-1.232V13.56z"/>
  </symbol>

  <symbol id="email" viewBox="0 0 32 32" preserveAspectRatio="xMinYMin meet">
    <title>Email</title>
    <path d="M0 4v4l16 8 16-8V4H0zm0 8v16h32V12l-16 8-16-8z"/>
  </symbol>
</svg>
