<?xml version="1.0" encoding="utf-8"?>
<!-- Generator: Adobe Illustrator 15.1.0, SVG Export Plug-In . SVG Version: 6.00 Build 0)  -->
<!DOCTYPE svg PUBLIC "-//W3C//DTD SVG 1.1//EN" "http://www.w3.org/Graphics/SVG/1.1/DTD/svg11.dtd">
<svg version="1.1" id="twitter" xmlns="http://www.w3.org/2000/svg" xmlns:xlink="http://www.w3.org/1999/xlink"
  viewBox="0 0 20 20" enable-background="new 0 0 20 20" xml:space="preserve">
  <path d="M6.661,17.314c-2.086,0-4.026-0.611-5.661-1.66c0.289,0.035,0.583,0.053,0.881,0.053c1.729,0,3.322-0.591,4.587-1.582
    c-1.617-0.029-2.98-1.097-3.45-2.564c0.225,0.043,0.457,0.066,0.694,0.066c0.338,0,0.663-0.045,0.974-0.13
    c-1.69-0.339-2.963-1.831-2.963-3.621c0-0.016,0-0.031,0-0.046c0.499,0.276,1.068,0.443,1.673,0.462
    C2.404,7.629,1.752,6.499,1.752,5.218c0-0.677,0.184-1.312,0.501-1.856c1.82,2.234,4.542,3.705,7.612,3.858
    C9.801,6.95,9.769,6.668,9.769,6.378c0-2.04,1.653-3.693,3.693-3.693c1.062,0,2.021,0.449,2.696,1.166
    c0.84-0.166,1.631-0.473,2.344-0.896c-0.275,0.862-0.86,1.586-1.623,2.043C17.625,4.91,18.338,4.711,19,4.417
    c-0.496,0.741-1.121,1.391-1.843,1.912c0.007,0.159,0.011,0.318,0.011,0.478C17.168,11.688,13.454,17.314,6.661,17.314"/>
</svg>